<mxfile host="app.diagrams.net" agent="Mozilla/5.0 (Windows NT 10.0; Win64; x64; rv:133.0) Gecko/20100101 Firefox/133.0" version="24.8.6">
  <diagram name="Pagina-1" id="MHwgSLlAGjfCZBLafRYp">
    <mxGraphModel dx="1728" dy="922" grid="1" gridSize="10" guides="1" tooltips="1" connect="1" arrows="1" fold="1" page="1" pageScale="1" pageWidth="1169" pageHeight="827" background="none" math="0" shadow="0">
      <root>
        <mxCell id="0" />
        <mxCell id="1" parent="0" />
        <mxCell id="OqL4IBBt3IvAGGdKvRG9-20" style="edgeStyle=orthogonalEdgeStyle;rounded=0;orthogonalLoop=1;jettySize=auto;html=1;exitX=1;exitY=0.5;exitDx=0;exitDy=0;" edge="1" parent="1" source="OqL4IBBt3IvAGGdKvRG9-18" target="OqL4IBBt3IvAGGdKvRG9-19">
          <mxGeometry relative="1" as="geometry" />
        </mxCell>
        <mxCell id="OqL4IBBt3IvAGGdKvRG9-18" value="" style="ellipse;" vertex="1" parent="1">
          <mxGeometry x="10" y="250" width="30" height="30" as="geometry" />
        </mxCell>
        <mxCell id="OqL4IBBt3IvAGGdKvRG9-19" value="" style="rounded=0;whiteSpace=wrap;html=1;" vertex="1" parent="1">
          <mxGeometry x="100" y="235" width="120" height="60" as="geometry" />
        </mxCell>
        <mxCell id="OqL4IBBt3IvAGGdKvRG9-21" value="" style="rounded=0;whiteSpace=wrap;html=1;" vertex="1" parent="1">
          <mxGeometry x="330" y="235" width="120" height="60" as="geometry" />
        </mxCell>
        <mxCell id="OqL4IBBt3IvAGGdKvRG9-22" value="" style="endArrow=classic;html=1;rounded=0;exitX=1;exitY=0.5;exitDx=0;exitDy=0;entryX=0;entryY=0.5;entryDx=0;entryDy=0;" edge="1" parent="1" source="OqL4IBBt3IvAGGdKvRG9-19" target="OqL4IBBt3IvAGGdKvRG9-21">
          <mxGeometry width="50" height="50" relative="1" as="geometry">
            <mxPoint x="250" y="350" as="sourcePoint" />
            <mxPoint x="300" y="300" as="targetPoint" />
          </mxGeometry>
        </mxCell>
        <mxCell id="OqL4IBBt3IvAGGdKvRG9-23" value="" style="rounded=0;whiteSpace=wrap;html=1;" vertex="1" parent="1">
          <mxGeometry x="560" y="235" width="120" height="60" as="geometry" />
        </mxCell>
        <mxCell id="OqL4IBBt3IvAGGdKvRG9-24" value="" style="rounded=0;whiteSpace=wrap;html=1;" vertex="1" parent="1">
          <mxGeometry x="780" y="235" width="120" height="60" as="geometry" />
        </mxCell>
        <mxCell id="OqL4IBBt3IvAGGdKvRG9-25" value="" style="rounded=0;whiteSpace=wrap;html=1;" vertex="1" parent="1">
          <mxGeometry x="780" y="450" width="120" height="60" as="geometry" />
        </mxCell>
        <mxCell id="OqL4IBBt3IvAGGdKvRG9-26" value="" style="endArrow=classic;html=1;rounded=0;exitX=0.5;exitY=1;exitDx=0;exitDy=0;entryX=0.5;entryY=0;entryDx=0;entryDy=0;" edge="1" parent="1" source="OqL4IBBt3IvAGGdKvRG9-25" target="OqL4IBBt3IvAGGdKvRG9-28">
          <mxGeometry width="50" height="50" relative="1" as="geometry">
            <mxPoint x="590" y="420" as="sourcePoint" />
            <mxPoint x="640" y="370" as="targetPoint" />
          </mxGeometry>
        </mxCell>
        <mxCell id="OqL4IBBt3IvAGGdKvRG9-28" value="" style="ellipse;shape=doubleEllipse;html=1;dashed=0;whiteSpace=wrap;aspect=fixed;" vertex="1" parent="1">
          <mxGeometry x="825" y="580" width="30" height="30" as="geometry" />
        </mxCell>
        <mxCell id="OqL4IBBt3IvAGGdKvRG9-29" style="edgeStyle=orthogonalEdgeStyle;rounded=0;orthogonalLoop=1;jettySize=auto;html=1;exitX=1;exitY=0.5;exitDx=0;exitDy=0;" edge="1" parent="1" source="OqL4IBBt3IvAGGdKvRG9-30" target="OqL4IBBt3IvAGGdKvRG9-31">
          <mxGeometry relative="1" as="geometry" />
        </mxCell>
        <mxCell id="OqL4IBBt3IvAGGdKvRG9-30" value="" style="ellipse;" vertex="1" parent="1">
          <mxGeometry x="60" y="915" width="30" height="30" as="geometry" />
        </mxCell>
        <mxCell id="OqL4IBBt3IvAGGdKvRG9-31" value="" style="rounded=0;whiteSpace=wrap;html=1;" vertex="1" parent="1">
          <mxGeometry x="150" y="900" width="120" height="60" as="geometry" />
        </mxCell>
        <mxCell id="OqL4IBBt3IvAGGdKvRG9-32" value="" style="rounded=0;whiteSpace=wrap;html=1;" vertex="1" parent="1">
          <mxGeometry x="380" y="900" width="120" height="60" as="geometry" />
        </mxCell>
        <mxCell id="OqL4IBBt3IvAGGdKvRG9-33" value="" style="endArrow=classic;html=1;rounded=0;exitX=1;exitY=0.5;exitDx=0;exitDy=0;entryX=0;entryY=0.5;entryDx=0;entryDy=0;" edge="1" parent="1" source="OqL4IBBt3IvAGGdKvRG9-31" target="OqL4IBBt3IvAGGdKvRG9-32">
          <mxGeometry width="50" height="50" relative="1" as="geometry">
            <mxPoint x="300" y="1015" as="sourcePoint" />
            <mxPoint x="350" y="965" as="targetPoint" />
          </mxGeometry>
        </mxCell>
        <mxCell id="OqL4IBBt3IvAGGdKvRG9-34" value="" style="rounded=0;whiteSpace=wrap;html=1;" vertex="1" parent="1">
          <mxGeometry x="610" y="900" width="120" height="60" as="geometry" />
        </mxCell>
        <mxCell id="OqL4IBBt3IvAGGdKvRG9-35" value="" style="rounded=0;whiteSpace=wrap;html=1;" vertex="1" parent="1">
          <mxGeometry x="830" y="900" width="120" height="60" as="geometry" />
        </mxCell>
        <mxCell id="OqL4IBBt3IvAGGdKvRG9-36" value="" style="rounded=0;whiteSpace=wrap;html=1;" vertex="1" parent="1">
          <mxGeometry x="830" y="1115" width="120" height="60" as="geometry" />
        </mxCell>
        <mxCell id="OqL4IBBt3IvAGGdKvRG9-37" value="" style="endArrow=classic;html=1;rounded=0;exitX=0.5;exitY=1;exitDx=0;exitDy=0;entryX=0.5;entryY=0;entryDx=0;entryDy=0;" edge="1" parent="1" source="OqL4IBBt3IvAGGdKvRG9-36" target="OqL4IBBt3IvAGGdKvRG9-38">
          <mxGeometry width="50" height="50" relative="1" as="geometry">
            <mxPoint x="640" y="1085" as="sourcePoint" />
            <mxPoint x="690" y="1035" as="targetPoint" />
          </mxGeometry>
        </mxCell>
        <mxCell id="OqL4IBBt3IvAGGdKvRG9-38" value="" style="ellipse;shape=doubleEllipse;html=1;dashed=0;whiteSpace=wrap;aspect=fixed;" vertex="1" parent="1">
          <mxGeometry x="875" y="1245" width="30" height="30" as="geometry" />
        </mxCell>
      </root>
    </mxGraphModel>
  </diagram>
</mxfile>
